<?xml version="1.0" encoding="UTF-8" standalone="no"?>
<svg width="18px" height="22px" viewBox="0 0 18 22" version="1.1" xmlns="http://www.w3.org/2000/svg" xmlns:xlink="http://www.w3.org/1999/xlink">
    <!-- Generator: Sketch 49.3 (51167) - http://www.bohemiancoding.com/sketch -->
    <title>CartIcon</title>
    <desc>Created with Sketch.</desc>
    <defs></defs>
    <g id="Symbols" stroke="none" stroke-width="1" fill="none" fill-rule="evenodd">
        <g id="AppBar" transform="translate(-984.000000, -11.000000)" fill="#FFFFFF">
            <g id="Icon/CartIcon">
                <g transform="translate(984.000000, 11.000000)">
                    <g id="cart">
                        <path d="M16,6 L16,20 L2,20 L2,6 L16,6 Z M16,4 L2,4 C0.9,4 0,4.9 0,6 L0,20 C0,21.1 0.9,22 2,22 L16,22 C17.1,22 18,21.1 18,20 L18,6 C18,4.9 17.1,4 16,4 Z" id="Shape" fill-rule="nonzero"></path>
                        <path d="M11,0 L13,0 C13,2.209139 11.209139,4 9,4 C6.790861,4 5,2.209139 5,0 L7,0 C7,1.1045695 7.8954305,2 9,2 C10.1045695,2 11,1.1045695 11,0 Z" id="Combined-Shape" transform="translate(9.000000, 2.000000) rotate(180.000000) translate(-9.000000, -2.000000) "></path>
                    </g>
                </g>
            </g>
        </g>
    </g>
</svg>