<?xml version="1.0" encoding="UTF-8" standalone="no"?>
<svg width="32px" height="32px" viewBox="0 0 32 32" version="1.1" xmlns="http://www.w3.org/2000/svg" xmlns:xlink="http://www.w3.org/1999/xlink">
    <!-- Generator: Sketch 49.3 (51167) - http://www.bohemiancoding.com/sketch -->
    <title>web</title>
    <desc>Created with Sketch.</desc>
    <defs></defs>
    <g id="Symbols" stroke="none" stroke-width="1" fill="none" fill-rule="evenodd">
        <g id="Icon/DashboardIcon" fill="#323232" fill-rule="nonzero">
            <g id="web">
                <path d="M28.8,0 L3.2,0 C1.44,0 0,1.8 0,4 L0,28 C0,30.2 1.44,32 3.2,32 L28.8,32 C30.56,32 32,30.2 32,28 L32,4 C32,1.8 30.56,0 28.8,0 Z M20.8,28 L3.2,28 L3.2,20 L20.8,20 L20.8,28 Z M20.8,18 L3.2,18 L3.2,10 L20.8,10 L20.8,18 Z M28.8,28 L22.4,28 L22.4,10 L28.8,10 L28.8,28 Z" id="Shape"></path>
            </g>
        </g>
    </g>
</svg>