<?xml version="1.0" encoding="UTF-8" standalone="no"?>
<svg width="32px" height="32px" viewBox="0 0 32 32" version="1.1" xmlns="http://www.w3.org/2000/svg" xmlns:xlink="http://www.w3.org/1999/xlink">
    <!-- Generator: Sketch 49.3 (51167) - http://www.bohemiancoding.com/sketch -->
    <title>DriftIcon</title>
    <desc>Created with Sketch.</desc>
    <defs></defs>
    <g id="Symbols" stroke="none" stroke-width="1" fill="none" fill-rule="evenodd">
        <g id="Icon/DriftIcon" fill="#333333">
            <g id="DriftIcon">
                <path d="M13.4583333,14.6978254 L18.7916667,14.6978254 L18.7916667,27.8089365 L13.4583333,27.8089365 L13.4583333,14.6978254 Z M20.125,16.4848485 L25.46875,16.4848485 L25.46875,27.8396872 L20.125,27.8396872 L20.125,16.4848485 Z M6.5625,19.143695 L11.90625,19.143695 L11.90625,28.4965787 L6.5625,28.4965787 L6.5625,19.143695 Z" id="Combined-Shape"></path>
                <path d="M1.72094919,8.77374483 C1.55716507,8.26107473 1.46875,7.71467522 1.46875,7.14760508 C1.46875,4.20208642 3.85423282,1.81427175 6.796875,1.81427175 C7.29362589,1.81427175 7.77449929,1.88231781 8.23069978,2.00960592 C10.5312185,0.729321551 13.1804382,0 16,0 C24.836556,0 32,7.163444 32,16 C32,24.836556 24.836556,32 16,32 C7.163444,32 0,24.836556 0,16 C0,13.3997426 0.620281002,10.9443596 1.72094919,8.77374483 Z M5.11294731,12.2090988 C4.68006363,13.429168 4.44444444,14.7426236 4.44444444,16.1111111 C4.44444444,22.5544332 9.66778903,27.7777778 16.1111111,27.7777778 C22.5544332,27.7777778 27.7777778,22.5544332 27.7777778,16.1111111 C27.7777778,9.66778903 22.5544332,4.44444444 16.1111111,4.44444444 C14.5831031,4.44444444 13.1237044,4.73819607 11.7863066,5.27230774 C12.0052474,5.8556868 12.125,6.48764742 12.125,7.14760508 C12.125,10.0931237 9.73951718,12.4809384 6.796875,12.4809384 C6.20841027,12.4809384 5.6422271,12.3854465 5.11294731,12.2090988 Z M6.78125,9.35288368 C8.00663179,9.35288368 9,8.35854443 9,7.13196481 C9,5.90538519 8.00663179,4.91104594 6.78125,4.91104594 C5.55586821,4.91104594 4.5625,5.90538519 4.5625,7.13196481 C4.5625,8.35854443 5.55586821,9.35288368 6.78125,9.35288368 Z" id="Combined-Shape"></path>
            </g>
        </g>
    </g>
</svg>