<?xml version="1.0" encoding="UTF-8" standalone="no"?>
<svg width="32px" height="32px" viewBox="0 0 32 32" version="1.1" xmlns="http://www.w3.org/2000/svg" xmlns:xlink="http://www.w3.org/1999/xlink">
    <!-- Generator: Sketch 49.3 (51167) - http://www.bohemiancoding.com/sketch -->
    <title>Shape</title>
    <desc>Created with Sketch.</desc>
    <defs></defs>
    <g id="Symbols" stroke="none" stroke-width="1" fill="none" fill-rule="evenodd">
        <g id="Icon/MapIcon" fill="#323232" fill-rule="nonzero">
            <g id="map">
                <path d="M31.1111111,0 C30.9333333,0 30.9333333,0 30.7555556,0 L21.3333333,3.73333333 L10.6666667,0 L0.711111111,3.37777778 C0.355555556,3.55555556 0,3.73333333 0,4.26666667 L0,31.1111111 C0,31.6444444 0.355555556,32 0.888888889,32 C1.06666667,32 1.06666667,32 1.24444444,32 L10.6666667,28.2666667 L21.3333333,32 L31.2888889,28.6222222 C31.6444444,28.4444444 32,28.0888889 32,27.7333333 L32,0.888888889 C32,0.355555556 31.6444444,0 31.1111111,0 Z M21.3333333,28.4444444 L10.6666667,24.7111111 L10.6666667,3.55555556 L21.3333333,7.28888889 L21.3333333,28.4444444 Z" id="Shape"></path>
            </g>
        </g>
    </g>
</svg>