<?xml version="1.0" encoding="UTF-8" standalone="no"?>
<svg width="32px" height="32px" viewBox="0 0 32 32" version="1.1" xmlns="http://www.w3.org/2000/svg" xmlns:xlink="http://www.w3.org/1999/xlink">
    <!-- Generator: Sketch 49.3 (51167) - http://www.bohemiancoding.com/sketch -->
    <title>PiBoardIcon</title>
    <desc>Created with Sketch.</desc>
    <defs></defs>
    <g id="Symbols" stroke="none" stroke-width="1" fill="none" fill-rule="evenodd">
        <g id="Mobile/MobileSubBar" transform="translate(-110.000000, -29.000000)">
            <g id="Icons" transform="translate(34.000000, 29.000000)">
                <g id="Group-2" transform="translate(72.000000, 0.000000)">
                    <g id="Icon/PiBoardIcon" transform="translate(4.000000, 0.000000)">
                        <g id="Group">
                            <g id="check-box-blank" fill="#323232" fill-rule="nonzero">
                                <path d="M28.4444444,0 L3.55555556,0 C1.6,0 0,1.6 0,3.55555556 L0,28.4444444 C0,30.4 1.6,32 3.55555556,32 L28.4444444,32 C30.4,32 32,30.4 32,28.4444444 L32,3.55555556 C32,1.6 30.4,0 28.4444444,0 Z" id="Shape"></path>
                            </g>
                            <circle id="Oval" fill="#FFFFFF" cx="24" cy="8" r="4"></circle>
                            <path d="M8,24 L8,22 C15.7319865,22 22,15.7319865 22,8 L24,8 C24,16.836556 16.836556,24 8,24 Z M8,-6 L8,-8 L8,-6 Z" id="Combined-Shape" fill="#FFFFFF" transform="translate(16.000000, 16.000000) rotate(90.000000) translate(-16.000000, -16.000000) "></path>
                            <path d="M14,18 L14,16 C18.418278,16 22,12.418278 22,8 L24,8 C24,13.5228475 19.5228475,18 14,18 Z" id="Combined-Shape" fill="#FFFFFF" transform="translate(19.000000, 13.000000) rotate(90.000000) translate(-19.000000, -13.000000) "></path>
                        </g>
                    </g>
                </g>
            </g>
        </g>
    </g>
</svg>