<?xml version="1.0" encoding="UTF-8" standalone="no"?>
<svg width="25px" height="32px" viewBox="0 0 25 32" version="1.1" xmlns="http://www.w3.org/2000/svg" xmlns:xlink="http://www.w3.org/1999/xlink">
    <!-- Generator: Sketch 49.3 (51167) - http://www.bohemiancoding.com/sketch -->
    <title>tap-and-play</title>
    <desc>Created with Sketch.</desc>
    <defs></defs>
    <g id="Symbols" stroke="none" stroke-width="1" fill="none" fill-rule="evenodd">
        <g id="Icon/AccessoireIcon" fill="#323232" fill-rule="nonzero">
            <g id="tap-and-play">
                <path d="M0,21.8181818 L0,24.7272727 C4.07272727,24.7272727 7.27272727,27.9272727 7.27272727,32 L10.1818182,32 C10.1818182,26.3272727 5.67272727,21.8181818 0,21.8181818 Z M0,27.6363636 L0,32 L4.36363636,32 C4.36363636,29.5272727 2.47272727,27.6363636 0,27.6363636 Z M0,16 L0,18.9090909 C7.27272727,18.9090909 13.0909091,24.7272727 13.0909091,32 L16,32 C16,23.1272727 8.87272727,16 0,16 Z M21.8181818,0 L7.27272727,0 C5.67272727,0 4.36363636,1.30909091 4.36363636,2.90909091 L4.36363636,13.6727273 C5.38181818,13.9636364 6.4,14.2545455 7.27272727,14.5454545 L7.27272727,5.81818182 L21.8181818,5.81818182 L21.8181818,24.7272727 L17.4545455,24.7272727 C18.1818182,26.4727273 18.6181818,28.5090909 18.7636364,30.5454545 L21.8181818,30.5454545 C23.4181818,30.5454545 24.7272727,29.2363636 24.7272727,27.6363636 L24.7272727,2.90909091 C24.7272727,1.30909091 23.4181818,0 21.8181818,0 Z" id="Shape"></path>
            </g>
        </g>
    </g>
</svg>